<svg xmlns="http://www.w3.org/2000/svg" width="27.448" height="27.449" viewBox="0 0 27.448 27.449">
  <g id="Group_373" data-name="Group 373" transform="translate(-1250.865 -470.923)">
    <path id="Path_204" data-name="Path 204" d="M1255.111,470.927h3.276a14.54,14.54,0,0,1,1.807.068,2.53,2.53,0,0,1,2.367,2.367,14.545,14.545,0,0,1,.068,1.807v6.408a14.545,14.545,0,0,1-.068,1.807,2.529,2.529,0,0,1-2.367,2.367,14.54,14.54,0,0,1-1.807.068h-3.276a14.534,14.534,0,0,1-1.807-.068,2.53,2.53,0,0,1-2.367-2.367,14.521,14.521,0,0,1-.068-1.807v-6.408a14.521,14.521,0,0,1,.068-1.807,2.53,2.53,0,0,1,2.367-2.367A14.534,14.534,0,0,1,1255.111,470.927Z" fill="#32cd75" fill-rule="evenodd"/>
    <path id="Path_205" data-name="Path 205" d="M1270.79,470.927h3.276a14.542,14.542,0,0,1,1.807.068,2.53,2.53,0,0,1,2.367,2.367,14.521,14.521,0,0,1,.068,1.807v.14a14.521,14.521,0,0,1-.068,1.807,2.53,2.53,0,0,1-2.367,2.367,14.542,14.542,0,0,1-1.807.068h-3.276a14.533,14.533,0,0,1-1.807-.068,2.524,2.524,0,0,1-2.364-2.367,14.521,14.521,0,0,1-.068-1.807v-.14a14.521,14.521,0,0,1,.068-1.807,2.53,2.53,0,0,1,2.367-2.367A14.486,14.486,0,0,1,1270.79,470.927Z" fill="#fff" fill-rule="evenodd"/>
    <path id="Path_206" data-name="Path 206" d="M1270.79,483.471h3.276a14.542,14.542,0,0,1,1.807.068,2.529,2.529,0,0,1,2.367,2.367,14.521,14.521,0,0,1,.068,1.807v6.412a14.521,14.521,0,0,1-.068,1.807,2.529,2.529,0,0,1-2.367,2.367,14.547,14.547,0,0,1-1.807.068h-3.276a14.539,14.539,0,0,1-1.807-.068,2.529,2.529,0,0,1-2.364-2.368,14.521,14.521,0,0,1-.068-1.807v-6.412a14.521,14.521,0,0,1,.068-1.807,2.529,2.529,0,0,1,2.367-2.367A14.485,14.485,0,0,1,1270.79,483.471Z" fill="#32cd75" fill-rule="evenodd"/>
    <path id="Path_207" data-name="Path 207" d="M1255.111,489.742h3.276a14.54,14.54,0,0,1,1.807.068,2.529,2.529,0,0,1,2.367,2.367,14.545,14.545,0,0,1,.068,1.807v.14a14.545,14.545,0,0,1-.068,1.807,2.529,2.529,0,0,1-2.367,2.367,14.54,14.54,0,0,1-1.807.068h-3.276a14.534,14.534,0,0,1-1.807-.068,2.53,2.53,0,0,1-2.367-2.367,14.521,14.521,0,0,1-.068-1.807v-.14a14.521,14.521,0,0,1,.068-1.807,2.53,2.53,0,0,1,2.367-2.367A14.534,14.534,0,0,1,1255.111,489.742Z" fill="#fff" fill-rule="evenodd"/>
  </g>
</svg>
