<svg id="Group_41262" data-name="Group 41262" xmlns="http://www.w3.org/2000/svg" width="35.422" height="24.39" viewBox="0 0 35.422 24.39">
  <path id="Path_82926" data-name="Path 82926" d="M400.662,175.986q7.582,0,15.163,0a2.241,2.241,0,0,1,2.278,1.356.553.553,0,0,1-.243.8q-8.444,5.546-16.885,11.094a.873.873,0,0,1-.777,0q-8.454-5.53-16.885-11.095a.552.552,0,0,1-.235-.8,2.216,2.216,0,0,1,2.212-1.35q6.647-.006,13.294,0Z" transform="translate(-382.874 -175.985)" fill="#32cd75"/>
  <path id="Path_82927" data-name="Path 82927" d="M400.619,286.289q-7.614,0-15.229,0A2.261,2.261,0,0,1,383.14,285c-.179-.364-.17-.605.223-.852,4.392-2.761,8.77-5.543,13.165-8.3a.818.818,0,0,1,.709.027c.887.538,1.748,1.118,2.608,1.7a1.255,1.255,0,0,0,1.539,0c.841-.567,1.7-1.108,2.537-1.682a.656.656,0,0,1,.855-.034q6.5,4.145,13.037,8.243a.609.609,0,0,1,.257.955,2.239,2.239,0,0,1-2.153,1.231q-6.472-.011-12.945,0Z" transform="translate(-382.902 -261.904)" fill="#00222b"/>
  <path id="Path_82928" data-name="Path 82928" d="M382.12,223.951V208.536l11.94,7.865Z" transform="translate(-382.12 -204.027)" fill="#00222b"/>
  <path id="Path_82929" data-name="Path 82929" d="M563.621,208.565v15.4l-11.931-7.541Z" transform="translate(-528.199 -204.052)" fill="#00222b"/>
</svg>
