<svg id="Group_43703" data-name="Group 43703" xmlns="http://www.w3.org/2000/svg" width="21.188" height="14.928" viewBox="0 0 21.188 14.928">
  <path id="Path_78006" data-name="Path 78006" d="M217.749,56.345c.031-.112.058-.226.094-.336a1.862,1.862,0,0,1,1.774-1.279c1.3-.005,2.592,0,3.889,0h13.465a1.855,1.855,0,0,1,1.9,1.387,2.216,2.216,0,0,1,.067.552q.006,5.523,0,11.046a1.862,1.862,0,0,1-1.943,1.94H219.742a1.862,1.862,0,0,1-1.962-1.541.546.546,0,0,0-.031-.076Zm2.171-.363c.063.069.106.119.152.166l7.7,7.735a.726.726,0,0,0,1.152,0l7.712-7.75c.041-.041.077-.087.13-.147Zm-.016,12.41h16.878L231.455,63.1c-.04.038-.095.089-.147.141-.516.519-1.03,1.04-1.549,1.556a1.955,1.955,0,0,1-2.832,0c-.313-.312-.623-.627-.934-.94l-.759-.759ZM219,56.914V67.466l5.314-5.275ZM237.68,67.475V56.942l-5.309,5.264Z" transform="translate(-217.749 -54.727)" fill="#32cd75"/>
</svg>
