<svg id="Group_43868" data-name="Group 43868" xmlns="http://www.w3.org/2000/svg" xmlns:xlink="http://www.w3.org/1999/xlink" width="31.386" height="27.507" viewBox="0 0 31.386 27.507">
  <defs>
    <clipPath id="clip-path">
      <rect id="Rectangle_22655" data-name="Rectangle 22655" width="31.386" height="27.507" fill="#fff"/>
    </clipPath>
  </defs>
  <g id="Group_43867" data-name="Group 43867" clip-path="url(#clip-path)">
    <path id="Path_82943" data-name="Path 82943" d="M31.386.666C30.747,2.25,30.1,3.831,29.472,5.419q-3.9,9.821-7.79,19.645c-.374.944-.758,1.092-1.673.657l-9.343-4.454c-.062-.029-.122-.062-.3-.152L23.745,7.991l-.15-.167a1.617,1.617,0,0,0-.224.132q-7.3,6-14.6,12.011a.54.54,0,0,1-.683.084C5.633,18.867,3.167,17.706.714,16.518A3.806,3.806,0,0,1,0,15.923v-.61a5.889,5.889,0,0,1,.907-.687q8.619-4.251,17.253-8.474,6.149-3.015,12.3-6.03c.4-.195.683-.176.929.2Z" transform="translate(0 0)" fill="#fff"/>
    <path id="Path_82944" data-name="Path 82944" d="M119.836,263.821l4.279,2.04-2.79,1.908c-.227.155-.446.324-.684.461a.491.491,0,0,1-.8-.419c-.016-1.3-.005-2.6-.005-3.99" transform="translate(-109.386 -240.82)" fill="#fff"/>
  </g>
</svg>
