<svg id="Group_385" data-name="Group 385" xmlns="http://www.w3.org/2000/svg" width="25.821" height="26.938" viewBox="0 0 25.821 26.938">
  <path id="Path_209" data-name="Path 209" d="M1300.566,473.344a4.479,4.479,0,0,1-3.851,4.425c-.035.006-.067.011-.081.05h-1.211c-.061-.1-.171-.075-.258-.093a4.488,4.488,0,0,1-3.582-4.379Z" transform="translate(-1284.846 -450.881)" fill="#109c4d"/>
  <path id="Path_210" data-name="Path 210" d="M1300.566,473.344l-8.983,0-4.6-.012a2.422,2.422,0,0,1-.8-.114,1.951,1.951,0,0,1-.682-3.3,7.741,7.741,0,0,0,2.529-4.143,7.527,7.527,0,0,0,.189-1.72q0-1.5,0-3a7.849,7.849,0,0,1,6.3-7.772,7.663,7.663,0,0,1,3.131.007c.195.039.189.1.129.256a7.642,7.642,0,0,0,1.073,7.742,7.509,7.509,0,0,0,4.726,2.9c.275.053.363.14.384.435a7.335,7.335,0,0,0,2.4,5.016,2.412,2.412,0,0,1,.9,1.374,1.962,1.962,0,0,1-1.989,2.317c-1.464.01-2.928,0-4.392,0C1300.776,473.335,1300.671,473.341,1300.566,473.344Z" transform="translate(-1284.846 -450.881)" fill="#32cd75"/>
  <path id="Path_211" data-name="Path 211" d="M1305.052,462.1a5.609,5.609,0,1,1,5.615-5.6A5.614,5.614,0,0,1,1305.052,462.1Z" transform="translate(-1284.846 -450.881)" fill="#00222b"/>
</svg>
