<svg id="Group_43993" data-name="Group 43993" xmlns="http://www.w3.org/2000/svg" xmlns:xlink="http://www.w3.org/1999/xlink" width="357.332" height="352.323" viewBox="0 0 357.332 352.323">
  <defs>
    <clipPath id="clip-path">
      <rect id="Rectangle_22703" data-name="Rectangle 22703" width="357.332" height="352.323" fill="none"/>
    </clipPath>
    <clipPath id="clip-path-5">
      <rect id="Rectangle_22690" data-name="Rectangle 22690" width="51.185" height="34.509" fill="none"/>
    </clipPath>
    <clipPath id="clip-path-6">
      <rect id="Rectangle_22691" data-name="Rectangle 22691" width="47.481" height="39.157" fill="none"/>
    </clipPath>
    <clipPath id="clip-path-8">
      <rect id="Rectangle_22693" data-name="Rectangle 22693" width="144.605" height="190.944" fill="none"/>
    </clipPath>
    <clipPath id="clip-path-9">
      <rect id="Rectangle_22694" data-name="Rectangle 22694" width="45.827" height="44.454" fill="none"/>
    </clipPath>
    <clipPath id="clip-path-10">
      <rect id="Rectangle_22695" data-name="Rectangle 22695" width="77.928" height="145.033" fill="none"/>
    </clipPath>
    <clipPath id="clip-path-12">
      <rect id="Rectangle_22697" data-name="Rectangle 22697" width="61.126" height="128.101" fill="none"/>
    </clipPath>
    <clipPath id="clip-path-13">
      <rect id="Rectangle_22698" data-name="Rectangle 22698" width="12.877" height="94.486" fill="none"/>
    </clipPath>
  </defs>
  <g id="Group_43992" data-name="Group 43992" clip-path="url(#clip-path)">
    <g id="Group_43958" data-name="Group 43958">
      <g id="Group_43957" data-name="Group 43957" clip-path="url(#clip-path)">
        <path id="Path_82950" data-name="Path 82950" d="M52.33,365.312c-69.773-40.284-69.773-105.6,0-145.88s182.9-40.283,252.672,0,69.773,105.6,0,145.88-182.9,40.284-252.672,0" transform="translate(0 -43.202)" fill="#f5f5f5"/>
      </g>
    </g>
    <g id="Group_43960" data-name="Group 43960">
      <g id="Group_43959" data-name="Group 43959" clip-path="url(#clip-path)">
        <path id="Path_82951" data-name="Path 82951" d="M162.715,347.171c21.407,12.359,21.407,32.4,0,44.758s-56.116,12.36-77.524,0-21.407-32.4,0-44.758,56.116-12.359,77.523,0" transform="translate(-15.785 -77.149)" fill="#e0e0e0"/>
        <path id="Path_82952" data-name="Path 82952" d="M294.935,249.974c34.094-1.12,45.788,20.567,26.121,48.439s-63.248,51.375-97.341,52.494-45.788-20.567-26.122-48.438,63.249-51.375,97.342-52.5" transform="translate(-42.935 -57.064)" fill="#e0e0e0"/>
      </g>
    </g>
    <g id="Group_43968" data-name="Group 43968">
      <g id="Group_43967" data-name="Group 43967" clip-path="url(#clip-path)">
        <path id="Path_82953" data-name="Path 82953" d="M351.525,291.613c7.6-9.062,19.51-14.967,32.9-18.45,13.219-3.439,15.59-11.573,6.826-14.213-9.934-2.992-22.329,2.507-30.32,10.153-13.929,13.326-15.674,23.526-15.674,23.526Z" transform="translate(-78.829 -58.934)" fill="#32cd75"/>
        <g id="Group_43963" data-name="Group 43963" transform="translate(266.428 199.187)" opacity="0.15">
          <g id="Group_43962" data-name="Group 43962">
            <g id="Group_43961" data-name="Group 43961" clip-path="url(#clip-path-5)">
              <path id="Path_82954" data-name="Path 82954" d="M351.525,291.613c7.6-9.062,19.51-14.967,32.9-18.45,13.219-3.439,15.59-11.573,6.826-14.213-9.934-2.992-22.329,2.507-30.32,10.153-13.929,13.326-15.674,23.526-15.674,23.526Z" transform="translate(-345.257 -258.121)"/>
            </g>
          </g>
        </g>
        <path id="Path_82955" data-name="Path 82955" d="M348.193,292.259a.389.389,0,0,1-.169-.039.385.385,0,0,1-.178-.515c11.282-23.149,36.249-28.844,42.318-28.415a.388.388,0,0,1,.357.414.394.394,0,0,1-.414.357c-5.926-.454-30.458,5.191-41.567,27.983a.386.386,0,0,1-.346.217" transform="translate(-79.411 -60.109)" fill="#fff"/>
        <path id="Path_82956" data-name="Path 82956" d="M345.256,300.153a2.108,2.108,0,0,0,3.188,1.8c7.068-4.116,17.38-6.389,34.066-1.641,8.871,2.524,13.238.836,15.109-2.777,2.078-4.013-2.325-7.89-7.336-9.722-17.076-6.239-32.489-1.979-45.028,10.47Z" transform="translate(-78.828 -65.065)" fill="#32cd75"/>
        <path id="Path_82957" data-name="Path 82957" d="M346.4,302.018a.386.386,0,0,1-.257-.674c14.743-13.178,37.587-10.613,46.232-5.473a.386.386,0,1,1-.4.664c-8.469-5.036-30.86-7.543-45.323,5.385a.384.384,0,0,1-.257.1" transform="translate(-79.002 -66.599)" fill="#fff"/>
        <path id="Path_82958" data-name="Path 82958" d="M119.2,333.4c-6.481-9.9-17.607-17.164-30.492-22.2-12.722-4.974-14.116-13.332-5.1-14.918,10.218-1.8,21.876,5.123,28.91,13.659,12.26,14.876,12.789,25.211,12.789,25.211Z" transform="translate(-17.769 -67.58)" fill="#32cd75"/>
        <g id="Group_43966" data-name="Group 43966" transform="translate(60.058 228.408)" opacity="0.15">
          <g id="Group_43965" data-name="Group 43965">
            <g id="Group_43964" data-name="Group 43964" clip-path="url(#clip-path-6)">
              <path id="Path_82959" data-name="Path 82959" d="M119.2,333.4c-6.481-9.9-17.607-17.164-30.492-22.2-12.722-4.974-14.116-13.332-5.1-14.918,10.218-1.8,21.876,5.123,28.91,13.659,12.26,14.876,12.789,25.211,12.789,25.211Z" transform="translate(-77.827 -295.988)"/>
            </g>
          </g>
        </g>
        <path id="Path_82960" data-name="Path 82960" d="M125.124,334.405a.377.377,0,0,0,.172-.019.384.384,0,0,0,.238-.491c-8.472-24.318-32.593-32.918-38.67-33.209a.387.387,0,0,0-.4.369.394.394,0,0,0,.369.4c5.939.248,29.634,8.749,37.976,32.691a.387.387,0,0,0,.319.256" transform="translate(-19.741 -68.652)" fill="#fff"/>
        <path id="Path_82961" data-name="Path 82961" d="M123.98,341.088a3.21,3.21,0,0,1-4.98,2.286c-6.541-4.382-16.289-7.225-32.253-4.666-9.107,1.459-13.244-.732-14.677-4.541-1.59-4.23,3.24-7.561,8.431-8.788C98.2,321.2,113,327.246,123.98,341.088" transform="translate(-16.385 -73.993)" fill="#32cd75"/>
        <path id="Path_82962" data-name="Path 82962" d="M124.484,344.711a.386.386,0,0,0,.335-.639c-13.086-14.826-36.073-14.973-45.264-10.888a.386.386,0,0,0,.313.705c9-4,31.535-3.85,44.372,10.695a.386.386,0,0,0,.244.127" transform="translate(-18.111 -75.55)" fill="#fff"/>
      </g>
    </g>
    <g id="Group_43979" data-name="Group 43979">
      <g id="Group_43978" data-name="Group 43978" clip-path="url(#clip-path)">
        <path id="Path_82963" data-name="Path 82963" d="M318.232,109.763l0-.005-.122-.063-.013-.007L288.684,92.754l-.028-.015-.172-.087,0,.007c-13.742-6.932-32.078-4.853-51.8,7.9-39.621,25.621-69.812,84.59-67.434,131.713,1.185,23.488,10.241,39.593,23.931,46.674l0,.005.121.062.015.008,29.422,16.938.013.007.144.073,0-.006c13.746,6.954,32.1,4.881,51.835-7.883,39.62-25.62,69.812-84.589,67.434-131.712-1.185-23.488-10.241-39.594-23.931-46.674" transform="translate(-38.613 -20.263)" fill="#37474f"/>
        <path id="Path_82964" data-name="Path 82964" d="M221.734,318.2l-28.412-16.4-.022,0-.133-.079c-13.682-7.1-22.734-23.2-23.917-46.66-1.061-21.016,4.369-44.376,14.194-66.069l.2-.475,29.228,17.407c-9.847,21.7-15.256,45.053-14.2,66.07,1.161,22.984,9.858,38.893,23.058,46.21" transform="translate(-38.613 -43.041)" fill="#263238"/>
        <path id="Path_82965" data-name="Path 82965" d="M283.438,293.16c39.619-25.621,69.811-84.589,67.433-131.712s-36.423-64.553-76.044-38.933S205.016,207.1,207.393,254.228s36.424,64.553,76.045,38.933" transform="translate(-47.322 -25.275)" fill="#455a64"/>
        <path id="Path_82966" data-name="Path 82966" d="M322.591,111.244,272.936,213.523l-10.689-11.584a17.568,17.568,0,0,0-25.812,23.838l28.156,30.5a17.469,17.469,0,0,0,11.956,5.62q.485.027.973.026a18.128,18.128,0,0,0,2.545-.182,17.543,17.543,0,0,0,13.234-9.706l56.95-117.3c-5.814-13.007-15.543-21.094-27.657-23.488" transform="translate(-52.922 -25.399)" fill="#37474f"/>
        <path id="Path_82967" data-name="Path 82967" d="M364.5,66.981q-.464-.267-.955-.505a15.279,15.279,0,0,0-20.388,7.055L279.973,203.683l-3.59-3.891a15,15,0,0,0-3.582-2.861c-1.885-1.08-9.894-5.719-11.189-6.467a15.256,15.256,0,0,0-18.844,23.556l28.156,30.5a15.139,15.139,0,0,0,3.635,2.891c1.838,1.046,9.82,5.673,11.125,6.431a15.2,15.2,0,0,0,6.826,2.026,15.5,15.5,0,0,0,3.053-.134,15.239,15.239,0,0,0,11.491-8.427L381.808,93.334a15.281,15.281,0,0,0-6.087-19.877c-.313-.18-9.221-5.327-11.217-6.476" transform="translate(-54.507 -14.829)" fill="#32cd75"/>
        <g id="Group_43971" data-name="Group 43971" transform="translate(184.226 50.12)" opacity="0.15">
          <g id="Group_43970" data-name="Group 43970">
            <g id="Group_43969" data-name="Group 43969" clip-path="url(#clip-path-8)">
              <path id="Path_82968" data-name="Path 82968" d="M364.5,66.981q-.464-.267-.955-.505a15.279,15.279,0,0,0-20.388,7.055L279.973,203.683l-3.59-3.891a15,15,0,0,0-3.582-2.861c-1.885-1.08-9.894-5.719-11.189-6.467a15.256,15.256,0,0,0-18.844,23.556l28.156,30.5a15.139,15.139,0,0,0,3.635,2.891c1.838,1.046,9.82,5.673,11.125,6.431a15.2,15.2,0,0,0,6.826,2.026,15.5,15.5,0,0,0,3.053-.134,15.239,15.239,0,0,0,11.491-8.427L381.808,93.334a15.281,15.281,0,0,0-6.087-19.877c-.313-.18-9.221-5.327-11.217-6.476" transform="translate(-238.733 -64.949)"/>
            </g>
          </g>
        </g>
        <g id="Group_43974" data-name="Group 43974" transform="translate(185.347 194.558)" opacity="0.15">
          <g id="Group_43973" data-name="Group 43973">
            <g id="Group_43972" data-name="Group 43972" clip-path="url(#clip-path-9)">
              <path id="Path_82969" data-name="Path 82969" d="M286.013,296.576c-1.3-.755-9.285-5.383-11.125-6.432a15.238,15.238,0,0,1-3.636-2.888l-28.156-30.5a15.282,15.282,0,0,1-2.911-4.635l11.2,6.461a15,15,0,0,0,2.925,4.642l28.156,30.5a15.329,15.329,0,0,0,3.55,2.853" transform="translate(-240.186 -252.122)"/>
            </g>
          </g>
        </g>
        <g id="Group_43977" data-name="Group 43977" transform="translate(225.467 54.009)" opacity="0.15">
          <g id="Group_43976" data-name="Group 43976">
            <g id="Group_43975" data-name="Group 43975" clip-path="url(#clip-path-10)">
              <path id="Path_82970" data-name="Path 82970" d="M370.105,76.456a15.111,15.111,0,0,0-3.536,4.693L301.577,215.022l-9.4-10.19,63.188-130.15a14.936,14.936,0,0,1,3.543-4.693Z" transform="translate(-292.177 -69.989)"/>
            </g>
          </g>
        </g>
        <path id="Path_82971" data-name="Path 82971" d="M378.072,74.86a15.278,15.278,0,0,0-20.388,7.054L292.69,215.785,279.7,201.706a15.253,15.253,0,0,0-22.408,20.7l28.156,30.5a15.17,15.17,0,0,0,10.379,4.879,15.555,15.555,0,0,0,3.054-.134,15.239,15.239,0,0,0,11.491-8.428L385.125,95.248a15.275,15.275,0,0,0-7.052-20.388" transform="translate(-57.823 -16.743)" fill="#32cd75"/>
      </g>
    </g>
    <g id="Group_43987" data-name="Group 43987">
      <g id="Group_43986" data-name="Group 43986" clip-path="url(#clip-path)">
        <path id="Path_82972" data-name="Path 82972" d="M121.119,88.718c-5.886,0-9.917,1.533-14.1,7.488-3.835,5.462-14.385,23.673-14.385,23.673s-7.693-15.831-8.492-18.989-.728-4.56.032-5.931a12.4,12.4,0,0,0,1.949-5.43c.3-3.791,1.229-7.04.377-7.148-2.357-.135-2.446,2.887-3.683,4.675a1.475,1.475,0,0,1-2.371-.26c-.52-1.057-.239-2.791-.492-4.041a17.664,17.664,0,0,1,.333-2.064,9.14,9.14,0,0,0,2.7.076c1.017,1.6,1.715,2.271,3.135,1.622.187-.3-.61-2.349-1.533-3.827a1.1,1.1,0,0,0-.634-.485,12.021,12.021,0,0,0-5.234-.144.982.982,0,0,0-.671.373,12.851,12.851,0,0,0-1.506,3.062c-.1.329-.409.321-.485.035A65.906,65.906,0,0,1,75.3,69.9c0-1.949-2.853-2.256-2.952.537a90.412,90.412,0,0,0,.193,11.246c.044.336-.336.5-.475.129a46.635,46.635,0,0,1-2.215-12.193c-.137-1.849-3.131-2.155-3.108.448a65.926,65.926,0,0,0,1.714,13.7c.087.326-.208.612-.434.242a44.7,44.7,0,0,1-3.354-8.455c-.635-2.233-3.62-1.666-3.1,1.117.936,4.994,2.418,11.312,4.625,15.823,2.362,4.825,4.406,7.237,5.575,11.027s6.029,25.253,11.22,33.617c4.068,6.554,8.722,5.951,13.727,2.494s22.9-28.393,22.9-28.393Z" transform="translate(-14.044 -15.566)" fill="#9e6767"/>
        <path id="Path_82973" data-name="Path 82973" d="M101.848,134.6s2.51,4.257,2.891,7.656a13.361,13.361,0,0,0-1.769-9.584Z" transform="translate(-23.254 -30.292)" fill="#874c4c"/>
        <path id="Path_82974" data-name="Path 82974" d="M132.251,94.775a15.885,15.885,0,0,0-10.875,2.2c-4.159,2.614-5.6,6.262-7.613,9.448s-8.978,14.478-8.978,14.478,2.553,10.719,12.714,12.928l15.209-20.638Z" transform="translate(-23.924 -21.603)" fill="#455a64"/>
        <path id="Path_82975" data-name="Path 82975" d="M148.611,339.035c.742-.094,1.793,2.533,1.809,3.391s-.845,2.7-1.984,4.429a31.158,31.158,0,0,0-3.739,6.657,22.561,22.561,0,0,1-4.1,7.049c-2.7,3.468-9.043,9.266-18.678,6.741a8.879,8.879,0,0,1-4.379-2.213,2.862,2.862,0,0,1-.674-2.947Z" transform="translate(-26.645 -77.408)" fill="#263238"/>
        <path id="Path_82976" data-name="Path 82976" d="M129.666,333.678c-.008.027-.015.055-.021.082a6.187,6.187,0,0,0,.064,2.169,15.155,15.155,0,0,1-3.652,11.878,22.765,22.765,0,0,1-4.5,3.639c-4.881,3.115-5.4,5.2-4.717,8.343,1.632,3.666,12.7,5.9,19.055.437A18.687,18.687,0,0,0,141.946,352a59.089,59.089,0,0,1,3.208-6.791c1.232-2.312,3.564-4.924,3.632-7.31.037-1.31-1.26-3.749-2.521-5.757-1.156-1.843-2.348-3.6-3.389-3.39l.287,1.042c-.867.9-2.126,1.238-2.886,2.3-.938,1.3-.9,3.058-1.487,4.554a.525.525,0,0,1-.283.347.371.371,0,0,1-.406-.207,1.084,1.084,0,0,1-.09-.482q-.034-1.123-.068-2.246a1.88,1.88,0,0,0-.325-1.217c-.6-.681-2.087-.6-2.911-.633a31.634,31.634,0,0,0-3.324.2,1.622,1.622,0,0,0-1.082.286,1.947,1.947,0,0,0-.635.989" transform="translate(-26.62 -75.056)" fill="#37474f"/>
        <path id="Path_82977" data-name="Path 82977" d="M112.075,256.1c2.571,8.448,14.584,37.7,15.306,39.46s2.39,5.806,2.39,5.806a9.008,9.008,0,0,0,4.879.2c.252,2.8.674,7.2.842,9.411.055,2.57.279,5.744-.274,8.283-.472,2.164-1.016,4.431-1.425,6.6-.181.96-.36,1.92-.5,2.886a4.826,4.826,0,0,0,.242,3.031,3.781,3.781,0,0,0,.953,1.083,8.5,8.5,0,0,0,6.054,1.776,6.359,6.359,0,0,0,3.208-1.063c1.867-1.338,2.524-3.661,3.474-5.636,1.032-2.142.7-2.377.785-4.671.062-1.6.506-5.68,1.148-9.938s3.405-19.23,4.731-34.148a122.3,122.3,0,0,0,0-19.907c10.541-28.639,15.235-45.665,16.614-55.177,1.4-9.662.729-13.1.552-18.662l-51.261,1.234c-4.123,26.495-11.162,58.1-7.713,69.429m25.041-45.44h0Z" transform="translate(-25.378 -42.338)" fill="#9e6767"/>
        <path id="Path_82978" data-name="Path 82978" d="M111.047,235.64c1.056-9.739,8.34-47.174,8.34-47.174h51.645s.326,7.187.233,10.486-1.153,9.336-3,16.962-8.678,29.236-10,32.426-3.877,12.4-3.877,12.4c1.267,17.32-2.026,32.86-4.5,53.515,0,0-.715,2.79-8.034,2.237-7.113-.537-8.548-3.159-8.548-3.159l-.476-17.823s-3.889,1.193-6.172.647c0,0-15.287-37.737-16.026-40.011s-.646-10.772.411-20.511" transform="translate(-25.151 -43.03)" fill="#32cd75"/>
        <g id="Group_43982" data-name="Group 43982" transform="translate(85.005 145.436)" opacity="0.45">
          <g id="Group_43981" data-name="Group 43981">
            <g id="Group_43980" data-name="Group 43980" clip-path="url(#clip-path-12)">
              <path id="Path_82979" data-name="Path 82979" d="M111.047,235.64c1.056-9.739,8.34-47.174,8.34-47.174h51.645s.326,7.187.233,10.486-1.153,9.336-3,16.962-8.678,29.236-10,32.426-3.877,12.4-3.877,12.4c1.267,17.32-2.026,32.86-4.5,53.515,0,0-.715,2.79-8.034,2.237-7.113-.537-8.548-3.159-8.548-3.159l-.476-17.823s-3.889,1.193-6.172.647c0,0-15.287-37.737-16.026-40.011s-.646-10.772.411-20.511" transform="translate(-110.155 -188.466)"/>
            </g>
          </g>
        </g>
        <g id="Group_43985" data-name="Group 43985" transform="translate(98.861 157.999)" opacity="0.2">
          <g id="Group_43984" data-name="Group 43984">
            <g id="Group_43983" data-name="Group 43983" clip-path="url(#clip-path-13)">
              <path id="Path_82980" data-name="Path 82980" d="M137.049,216.587c-7.312-6.594-8.938-11.84-8.938-11.84a48.755,48.755,0,0,0,12.877,10.319s-6.944,36.671-6.439,44.211,2.385,39.954,2.385,39.954c.014.312-4.924-34.281-5.064-37.046-.369-7.281,5.18-45.6,5.18-45.6" transform="translate(-128.111 -204.747)"/>
            </g>
          </g>
        </g>
        <path id="Path_82981" data-name="Path 82981" d="M150.386,375.273c.72.205.63,2.354.3,3.15a9.774,9.774,0,0,1-3.337,3.459,16.161,16.161,0,0,0-4.9,5.275,24.722,24.722,0,0,1-7.678,7.495,18.559,18.559,0,0,1-13.506,1.878c-4.845-1.376-5.3-2.563-5.251-4.391Z" transform="translate(-26.489 -85.682)" fill="#263238"/>
        <path id="Path_82982" data-name="Path 82982" d="M135.186,360.688c-1.27,6.2-3.486,10.706-8.623,14.523-4.084,3.035-7.052,4.578-10.31,7.291-1.389,1.156-1.5,3.619-.441,6.274,2.2,1.769,5.335,2.781,9.544,2.775,4.7-.008,6.513-.836,9.212-2.685a24.325,24.325,0,0,0,3.686-3.1c2.259-2.267,3.835-5.066,5.466-6.863s5.159-3.633,6.162-5.8c.55-1.192.317-3.948-.052-6.293-.339-2.152.321-5.933-.718-6.153.022,0-.141,1.539-.141,1.539-.086.35-.3.526-1.031.778a5.252,5.252,0,0,1-1.986.059,1.176,1.176,0,0,0-1.328.376c-.7.821-.881,1.976-1.774,2.654a.553.553,0,0,1-.207.11.221.221,0,0,1-.215-.062.339.339,0,0,1-.039-.253q.13-1.153.258-2.307a2.792,2.792,0,0,0,.019-.7,1.511,1.511,0,0,0-.745-1.014,8.356,8.356,0,0,0-2.074-.861,12.8,12.8,0,0,0-2.3-.392,7.181,7.181,0,0,0-2.364.1" transform="translate(-26.28 -82.317)" fill="#455a64"/>
        <path id="Path_82983" data-name="Path 82983" d="M168.985,97.023a30.484,30.484,0,0,1,3.83,8.934,146.257,146.257,0,0,1,3.243,30.033c0,13.631-1.84,35.727-1.84,35.727-15.824,7.932-41.351,3.241-52.585-4.494.455-2.456.84-15.357,1.723-23.868.6-14.6,1.091-22.254,1.195-28.749.206-12.98,6.667-19.684,11.546-19.784l12.393.194Z" transform="translate(-27.771 -21.649)" fill="#32cd75"/>
        <path id="Path_82984" data-name="Path 82984" d="M185.034,189.275c-2.352,1.936-6.973,5.658-7.818,7.533-.968,2.147-1.57,5.378-2.2,6.626s.336,1.831,1.692,1.4,2.171-1.594,3.219-4.4a13.3,13.3,0,0,1,3.964-5.005Z" transform="translate(-39.915 -43.215)" fill="#874c4c"/>
        <path id="Path_82985" data-name="Path 82985" d="M176.906,193.623c.561,1.086,1.877,1.09,3.1,1.189a9.9,9.9,0,0,0,4.375-.5,7.963,7.963,0,0,0,4.206-2.928c1.189-1.706,1.492-3.854,2.17-5.82,1.425-4.132,5.655-7.106,6.344-11.483.285-1.81.286-3.936.8-5.059.3-.661,7.254-12.631,9.732-17.816,2.383-4.984,4.165-7.329,2.006-13.321s-9.519-27.063-14.724-34.385c-2.952-4.154-7.638-5.336-13.318-5.829-4.321,11.258.709,22.883.709,22.883l11.43,22.052s-4.444,15.186-7.221,23.631c-.772,2.346-2.331,3.8-4.084,6.395-.761,1.129-2.512,3.107-3.134,4.318-.8,1.56-.78,2.559-1.156,4.744-.6,3.482-1.5,11.408-1.232,11.926" transform="translate(-40.38 -22.301)" fill="#9e6767"/>
        <path id="Path_82986" data-name="Path 82986" d="M181.663,97.6c2.985.12,7.275.624,9.842,1.92s4.341,2.9,7.295,8.806,7.255,17.394,7.255,17.394-1.428,8.664-15.13,10.913l-9.262-17.076s-4.127-10.639,0-21.957" transform="translate(-41.058 -22.283)" fill="#455a64"/>
        <path id="Path_82987" data-name="Path 82987" d="M133.8,54.885a18.538,18.538,0,0,1,1.048,2.253A13.146,13.146,0,0,0,136.581,60,29.266,29.266,0,0,0,143.125,65a7.006,7.006,0,0,0,4.637,1.465,23.611,23.611,0,0,1,5.3.282l6.072.544-.343,6.385s.752-1.692,1.781-3.712c.884-1.736,4.571-10.546,4.585-10.579,1.827-4.365,4-10.182,1.811-14.768a6.08,6.08,0,0,0-2.374-2.722,5.364,5.364,0,0,0,.2-2.173,7,7,0,0,0-3.224-5.112,15.338,15.338,0,0,0-5.727-2.359,36.385,36.385,0,0,0-8.287-.922,49.572,49.572,0,0,0-8.131.935,29.184,29.184,0,0,1-4.531.472,8.518,8.518,0,0,1-1.962-.093,22,22,0,0,1-2.367-.854.554.554,0,0,0-.423-.034.529.529,0,0,0-.228.363,6.87,6.87,0,0,0,1.262,5.566,3.706,3.706,0,0,1-1-.291,7.236,7.236,0,0,1-1.043-.586,5.958,5.958,0,0,1-1.465-1.4.444.444,0,0,0-.241-.181c-.153-.027-.283.106-.374.232a5.439,5.439,0,0,0-.8,4.265,9.312,9.312,0,0,0,2.007,3.943,5.411,5.411,0,0,0-.273,5.179,6.984,6.984,0,0,0,1.364,1.962c.691.71,1.513,1.29,2.242,1.951a13.452,13.452,0,0,1,2.214,2.128" transform="translate(-28.796 -7.152)" fill="#37474f"/>
        <path id="Path_82988" data-name="Path 82988" d="M153.386,48.033a11.97,11.97,0,0,0,.437,3.414,6.7,6.7,0,0,0,1.723,2.537,20.062,20.062,0,0,1,2.39,2.415,10.177,10.177,0,0,1,1.343,4.444,3.136,3.136,0,0,0,1.174,2.4c1.651,1.021,2.64-.959,3.52-1.931,1.136-1.049,4.5-2.33,6.061,1.249,1.614,3.707-1.36,8.616-4.071,9.371-4.671,1.3-5.685-1.877-5.685-1.877l-.894,16.668c-2.638,4.994-8.827,6.58-12.892,5.785-3.51-.686-5.44-3.145-2.138-6.715l.178-5.076a29.188,29.188,0,0,1-6.244.118c-3.384-.637-5.061-3.512-5.974-7.226-1.465-5.966-2.134-12.237-.323-25.668.831-.458,4.169,2.143,9.223,2.492a23.469,23.469,0,0,0,12.172-2.4" transform="translate(-29.886 -10.933)" fill="#9e6767"/>
        <path id="Path_82989" data-name="Path 82989" d="M148.546,88.617s7.64-1.283,10.341-2.608a8.745,8.745,0,0,0,3.787-3.51,11.959,11.959,0,0,1-2.223,4.213c-2.022,2.418-11.97,3.924-11.97,3.924Z" transform="translate(-33.901 -18.836)" fill="#874c4c"/>
        <path id="Path_82990" data-name="Path 82990" d="M153.679,55.363l3.557,1.088a1.953,1.953,0,0,0-1.276-2.381,1.815,1.815,0,0,0-2.28,1.293" transform="translate(-35.088 -12.327)" fill="#263238"/>
        <path id="Path_82991" data-name="Path 82991" d="M150.527,77.649l-5.236,1.773a2.716,2.716,0,0,0,3.458,1.828,2.9,2.9,0,0,0,1.778-3.6" transform="translate(-33.173 -17.729)" fill="#874c4c"/>
        <path id="Path_82992" data-name="Path 82992" d="M150.646,79.309a3.079,3.079,0,0,0-2.986,2.342,2.635,2.635,0,0,0,1.63-.022,2.836,2.836,0,0,0,1.863-2.269,3.152,3.152,0,0,0-.507-.051" transform="translate(-33.714 -18.108)" fill="#f28f8f"/>
        <path id="Path_82993" data-name="Path 82993" d="M133.1,55.941l3.612-.476a1.759,1.759,0,0,0-2-1.541,1.856,1.856,0,0,0-1.611,2.017" transform="translate(-30.387 -12.308)" fill="#263238"/>
        <path id="Path_82994" data-name="Path 82994" d="M161.93,58.541l11.934,4.09a4.345,4.345,0,0,0-3.439,1.746l-8.453-3.21Z" transform="translate(-36.972 -13.366)" fill="#263238"/>
        <path id="Path_82995" data-name="Path 82995" d="M135.4,64.148a1.428,1.428,0,1,0,1.475-1.44,1.45,1.45,0,0,0-1.475,1.44" transform="translate(-30.915 -14.317)" fill="#263238"/>
        <path id="Path_82996" data-name="Path 82996" d="M153.079,64.158a1.428,1.428,0,1,0,1.475-1.439,1.45,1.45,0,0,0-1.475,1.439" transform="translate(-34.951 -14.32)" fill="#263238"/>
        <path id="Path_82997" data-name="Path 82997" d="M126.282,59.173a3.248,3.248,0,0,0,.753,1.682,1.461,1.461,0,0,1,.3.6A29.965,29.965,0,0,0,128.4,66a5.021,5.021,0,0,0,4.89,3.229,7.13,7.13,0,0,0,1.665-.14l.126-.028a4.757,4.757,0,0,0,1.353-.532c.027-.016.055-.032.08-.05s.078-.047.116-.073.067-.046.145-.1c.046-.032.09-.066.134-.1s.1-.078.147-.12.094-.08.14-.125c.093-.085.178-.172.262-.265a6.287,6.287,0,0,0,1.087-1.728c.705-1.588.522-3.811,1.684-4.068a.939.939,0,0,1,.139-.02,1.178,1.178,0,0,1,.15-.006c1.577.022,1.4,2.444,2.285,4.172a5.9,5.9,0,0,0,5.764,3.466c.153,0,.3,0,.443,0,.12-.005.239-.012.353-.024a5.994,5.994,0,0,0,.823-.117c.089-.02.175-.039.259-.06s.168-.047.248-.07c.052-.014.1-.032.156-.05a4.643,4.643,0,0,0,.927-.435c.109-.068.21-.137.311-.21a4.319,4.319,0,0,0,.536-.469,5.453,5.453,0,0,0,1.037-1.606,28.475,28.475,0,0,0,.935-4.506,1.944,1.944,0,0,1,.262-.655,3.081,3.081,0,0,0,.771-1.624,1.407,1.407,0,0,0-.954-1.426c-.269-.039-.549-.076-.839-.112-2.7-.326-6.224-.471-8.33.1-2.642.722-3.557,1.568-5.031,1.548-1.378-.033-2.272-.911-4.774-1.728a22.626,22.626,0,0,0-7.8-.4c-.269.024-.53.052-.779.081-.43.052-.886.7-.833,1.429m17.377,1.653a2.23,2.23,0,0,1,.752-.614,1.435,1.435,0,0,1,.136-.076c.025-.015.049-.027.074-.039.117-.06.242-.12.373-.176.109-.048.225-.095.344-.14a9.771,9.771,0,0,1,1.127-.355c.147-.037.3-.073.449-.1a10.681,10.681,0,0,1,1.161-.183c.093-.01.184-.019.271-.022,2.543-.207,4.131.393,4.708.914.6.542.328,2.891.086,4.084l-.019.089c-.006.029-.013.061-.019.093-.029.144-.065.308-.109.482-.025.1-.053.2-.083.3,0,.005,0,.009,0,.012-.047.161-.1.327-.17.5v0c-.022.056-.046.113-.07.171-.012.032-.028.066-.046.1a1.128,1.128,0,0,1-.052.113c-.022.047-.046.1-.07.142s-.054.107-.085.158-.064.111-.1.168-.071.113-.11.169a4,4,0,0,1-3.555,1.677,4.9,4.9,0,0,1-3.756-1.432h0a5.332,5.332,0,0,1-1.231-2.41c-.313-1.338-.494-2.895,0-3.62M128.7,59.581a2.18,2.18,0,0,1,.621-.394.448.448,0,0,1,.049-.022c.085-.039.176-.074.275-.108.052-.018.11-.038.167-.054s.093-.029.14-.039a.934.934,0,0,1,.093-.025.186.186,0,0,1,.036-.009l.138-.032a5.729,5.729,0,0,1,.586-.1c.1-.013.208-.025.317-.031.062-.006.126-.009.192-.014.049,0,.1,0,.147-.006.13,0,.266-.006.405,0l.15,0,.139,0a11.3,11.3,0,0,1,1.172.111c1.813.262,3.708,1.1,4.2,1.847s.383,2.294.146,3.622a6.127,6.127,0,0,1-.228.889c-.006.022-.016.045-.024.069s-.021.059-.032.09-.015.039-.022.06-.029.072-.045.106c-.031.075-.063.147-.1.22s-.061.126-.094.188c-.012.023-.025.046-.037.066-.023.04-.048.083-.074.126s-.044.072-.069.109a.145.145,0,0,1-.01.018A3.984,3.984,0,0,1,133.164,68a4.468,4.468,0,0,1-1.9-.457c-1.8-.916-2.263-2.942-2.476-3.881-.271-1.2-.624-3.566-.086-4.084" transform="translate(-28.832 -13.132)" fill="#263238"/>
        <path id="Path_82998" data-name="Path 82998" d="M143.574,63.243l-.27,9.92-5.536-1.6,5.16-8.4a1.422,1.422,0,0,1,.646.083" transform="translate(-31.455 -14.419)" fill="#874c4c"/>
      </g>
    </g>
    <g id="Group_43989" data-name="Group 43989">
      <g id="Group_43988" data-name="Group 43988" clip-path="url(#clip-path)">
        <path id="Path_82999" data-name="Path 82999" d="M208.5,25.044C208.5,11.213,221.3,0,237.09,0S265.68,11.213,265.68,25.044s-12.8,25.043-28.591,25.043S208.5,38.874,208.5,25.044" transform="translate(-47.604 0)" fill="#32cd75"/>
        <path id="Path_83000" data-name="Path 83000" d="M213.5,51.216c-.157,3.36-3,9.363-8.133,11.546a.354.354,0,0,0,.059.674,15.415,15.415,0,0,0,15.819-5.992Z" transform="translate(-46.839 -11.694)" fill="#32cd75"/>
        <path id="Path_83001" data-name="Path 83001" d="M220.41,27.463a9.131,9.131,0,0,1,.738-3.176,7.608,7.608,0,0,1,1.837-2.59,8.821,8.821,0,0,1,2.89-1.746,12.2,12.2,0,0,1,7.843,0,8.792,8.792,0,0,1,2.905,1.746,7.628,7.628,0,0,1,1.837,2.59,9.131,9.131,0,0,1,.738,3.176q.06,1.294.06,2.709t-.06,2.649A9.131,9.131,0,0,1,238.46,36a7.769,7.769,0,0,1-1.837,2.6,8.471,8.471,0,0,1-2.905,1.747,12.483,12.483,0,0,1-7.843,0,8.5,8.5,0,0,1-2.89-1.747,7.748,7.748,0,0,1-1.837-2.6,9.131,9.131,0,0,1-.738-3.176q-.061-1.234-.06-2.649t.06-2.709m13.217,5.209c.019-.362.04-.762.06-1.205s.03-.892.03-1.354-.01-.908-.03-1.34-.041-.817-.06-1.16a4.69,4.69,0,0,0-.316-1.384,3.285,3.285,0,0,0-.723-1.1,3.333,3.333,0,0,0-1.16-.738,5.013,5.013,0,0,0-3.251,0,3.33,3.33,0,0,0-1.159.738,3.261,3.261,0,0,0-.722,1.1,4.642,4.642,0,0,0-.316,1.384c-.041.343-.066.728-.076,1.16s-.015.878-.015,1.34,0,.913.015,1.354.035.843.076,1.205a4.032,4.032,0,0,0,1.039,2.5,3.612,3.612,0,0,0,2.785.993,3.563,3.563,0,0,0,2.77-.993,4.232,4.232,0,0,0,1.053-2.5" transform="translate(-50.31 -4.407)" fill="#fafafa"/>
        <path id="Path_83002" data-name="Path 83002" d="M267.193,39.776a.539.539,0,0,1,.09.331.669.669,0,0,1-.662.662h-4.787a1.227,1.227,0,0,1-.693-.181,2.56,2.56,0,0,1-.542-.512l-5.69-7.167v7.045a.824.824,0,0,1-.813.813h-3.944a.822.822,0,0,1-.813-.813V20.507a.822.822,0,0,1,.813-.813H254.1a.824.824,0,0,1,.813.813V26.86l5.3-6.5q.15-.181.391-.421a1.125,1.125,0,0,1,.813-.241h4.7a.667.667,0,0,1,.662.662.543.543,0,0,1-.09.332l-7.437,9.092Z" transform="translate(-56.929 -4.497)" fill="#fafafa"/>
      </g>
    </g>
    <rect id="Rectangle_22701" data-name="Rectangle 22701" width="4.513" height="10.897" transform="translate(255.795 39.583) rotate(-16.754)" fill="#e0e0e0"/>
    <g id="Group_43991" data-name="Group 43991">
      <g id="Group_43990" data-name="Group 43990" clip-path="url(#clip-path)">
        <path id="Path_83003" data-name="Path 83003" d="M354.178,48.034a2.006,2.006,0,0,1-1.226,2.02,3.008,3.008,0,0,1,.607,1.1c.248.808-.412,1.9-1.712,2.282s-9.9,2.979-9.9,2.979l-2.914-9.695h-.007s1.681-4.288,1.763-4.933c.1-.635-.907-3.024-1.042-3.473-.11-.366,1.465-1.031,2.733-.52a2.207,2.207,0,0,1,.808.559,6.862,6.862,0,0,1,1.135,1.627,5.893,5.893,0,0,1,.6,2.737l5.982-1.8a1.861,1.861,0,0,1,1.28.04,1.743,1.743,0,0,1,.987,1.047,1.777,1.777,0,0,1-.509,1.807,1.593,1.593,0,0,1,1.636,1.1,1.771,1.771,0,0,1-.987,2,1.876,1.876,0,0,1,.763,1.115" transform="translate(-77.406 -8.588)" fill="#e0e0e0"/>
        <path id="Path_83004" data-name="Path 83004" d="M419.892,199.068l-5.548-1.334,3.233-13.382,5.541,1.33Z" transform="translate(-94.603 -42.091)" fill="#e0e0e0"/>
        <path id="Path_83005" data-name="Path 83005" d="M442.769,195.553a2.535,2.535,0,0,1-2.625,1.423,3.785,3.785,0,0,1-.042,1.592c-.243,1.039-1.656,1.806-3.321,1.4s-12.7-3.057-12.7-3.057l3-12.434-.007,0s4.565-3.609,5.065-4.261c.512-.63.937-3.877,1.076-4.453.113-.469,2.256-.191,3.314,1.174a2.79,2.79,0,0,1,.526,1.124,8.674,8.674,0,0,1,.2,2.5,7.443,7.443,0,0,1-1.085,3.371l7.673,1.847a2.352,2.352,0,0,1,1.372.86,2.2,2.2,0,0,1,.409,1.771,2.244,2.244,0,0,1-1.706,1.648A2.014,2.014,0,0,1,445,192.291a2.237,2.237,0,0,1-2.354,1.56,2.37,2.37,0,0,1,.123,1.7" transform="translate(-96.826 -40.08)" fill="#e0e0e0"/>
        <path id="Path_83006" data-name="Path 83006" d="M58.352,188.721l6.056,1.824,4.382-14.616-6.047-1.823Z" transform="translate(-13.323 -39.752)" fill="#e0e0e0"/>
        <path id="Path_83007" data-name="Path 83007" d="M33.706,171.9a2.809,2.809,0,0,0,1.717,2.829,4.2,4.2,0,0,0-.849,1.547c-.349,1.131.576,2.653,2.4,3.195s13.865,4.172,13.865,4.172l4.08-13.576h.009s-2.353-6.005-2.468-6.909c-.137-.889,1.27-4.234,1.458-4.864.154-.512-2.052-1.444-3.828-.728a3.093,3.093,0,0,0-1.131.783,9.622,9.622,0,0,0-1.589,2.277,8.249,8.249,0,0,0-.845,3.834l-8.377-2.52a2.607,2.607,0,0,0-1.793.056,2.445,2.445,0,0,0-1.381,1.467,2.488,2.488,0,0,0,.712,2.53,2.231,2.231,0,0,0-2.291,1.539,2.48,2.48,0,0,0,1.382,2.808,2.626,2.626,0,0,0-1.069,1.561" transform="translate(-7.606 -35.917)" fill="#e0e0e0"/>
      </g>
    </g>
  </g>
</svg>
