<svg xmlns="http://www.w3.org/2000/svg" width="143.344" height="23.082" viewBox="0 0 143.344 23.082">
  <g id="SOLID_WHITE" data-name="SOLID WHITE" transform="translate(-76.07 -71.31)">
    <rect id="Rectangle_22863" data-name="Rectangle 22863" width="3.534" height="15.621" rx="1.767" transform="translate(177.372 78.561)" fill="#00ce7c"/>
    <path id="Path_83605" data-name="Path 83605" d="M582.885,71.31a3.507,3.507,0,0,0-3.507,3.507v5.67a5.585,5.585,0,0,0-1.471-1.238,6.684,6.684,0,0,0-3.393-.863,7.758,7.758,0,0,0-3.916.995,7.106,7.106,0,0,0-2.729,2.778,9.458,9.458,0,0,0,0,8.426,7.206,7.206,0,0,0,2.729,2.794,7.662,7.662,0,0,0,3.916,1.01,6.69,6.69,0,0,0,3.449-.878,5.523,5.523,0,0,0,1.556-1.368V92.5a1.683,1.683,0,0,0,1.683,1.683h0a1.683,1.683,0,0,0,1.683-1.683V71.31h0Zm-4.057,17.666a4.28,4.28,0,0,1-1.612,1.7,4.713,4.713,0,0,1-4.551,0,4.281,4.281,0,0,1-1.612-1.7,5.91,5.91,0,0,1,0-5.221,4.332,4.332,0,0,1,1.612-1.683,4.713,4.713,0,0,1,4.551,0,4.317,4.317,0,0,1,1.612,1.683,5.91,5.91,0,0,1,0,5.221Z" transform="translate(-381.111)" fill="#00ce7c"/>
    <path id="Path_83606" data-name="Path 83606" d="M666.163,118.979a12.785,12.785,0,0,1-3.634-.512,12.988,12.988,0,0,1-1.381-.487,1.515,1.515,0,0,1-.742-2.056l.031-.065a1.515,1.515,0,0,1,1.965-.729,11.281,11.281,0,0,0,1.158.427,9.484,9.484,0,0,0,2.827.438,4.754,4.754,0,0,0,2.418-.467,1.425,1.425,0,0,0,.749-1.258,1.1,1.1,0,0,0-.51-.979,3.879,3.879,0,0,0-1.33-.512q-.821-.174-1.824-.322c-.668-.1-1.339-.23-2.007-.4a6.8,6.8,0,0,1-1.824-.731,3.838,3.838,0,0,1-1.33-1.3,4.056,4.056,0,0,1-.51-2.166,4.194,4.194,0,0,1,.82-2.588,5.24,5.24,0,0,1,2.3-1.7,9.374,9.374,0,0,1,3.52-.6,13.919,13.919,0,0,1,3.082.351,10.613,10.613,0,0,1,1.035.286,1.513,1.513,0,0,1,.856,2.1h0a1.542,1.542,0,0,1-1.965.733,6.541,6.541,0,0,0-.874-.27,9.71,9.71,0,0,0-2.164-.248,4.53,4.53,0,0,0-2.389.5,1.462,1.462,0,0,0-.778,1.258,1.2,1.2,0,0,0,.51,1.053,4.059,4.059,0,0,0,1.33.557,16.714,16.714,0,0,0,1.824.337,15.415,15.415,0,0,1,1.994.4,8.334,8.334,0,0,1,1.824.717,3.56,3.56,0,0,1,1.343,1.272,4,4,0,0,1,.51,2.137,4.064,4.064,0,0,1-.834,2.546,5.358,5.358,0,0,1-2.36,1.681,9.961,9.961,0,0,1-3.648.6Z" transform="translate(-453.588 -24.592)" fill="#00ce7c"/>
    <path id="Path_83607" data-name="Path 83607" d="M101.373,105.948a5.225,5.225,0,0,0-2.266-2.237,7.271,7.271,0,0,0-3.321-.731,7.748,7.748,0,0,0-4.066,1.053,6.32,6.32,0,0,0-1.779,1.56,4.783,4.783,0,0,0-1.453-1.531,6.718,6.718,0,0,0-3.817-1.082,7.28,7.28,0,0,0-3.438.791,5.309,5.309,0,0,0-1.632,1.305.87.87,0,0,0-.051.074v-1.9a.087.087,0,0,0-.087-.087,3.392,3.392,0,0,0-3.393,3.393v10.4a1.828,1.828,0,1,0,3.657,0v-6.1a5.809,5.809,0,0,1,.512-2.6,3.59,3.59,0,0,1,1.433-1.551,4.2,4.2,0,0,1,2.121-.525,3.3,3.3,0,0,1,2.6,1.024,4.574,4.574,0,0,1,.907,3.1v6.656a1.828,1.828,0,1,0,3.657,0v-6.1a5.809,5.809,0,0,1,.512-2.6A3.577,3.577,0,0,1,92.9,106.7a4.2,4.2,0,0,1,2.121-.525,3.3,3.3,0,0,1,2.6,1.024,4.575,4.575,0,0,1,.907,3.1v6.656a1.828,1.828,0,0,0,1.828,1.828h0a1.828,1.828,0,0,0,1.828-1.828v-7.123a8.051,8.051,0,0,0-.82-3.876Z" transform="translate(0 -24.592)" fill="#fff"/>
    <path id="Path_83608" data-name="Path 83608" d="M216.568,118.971a8.646,8.646,0,0,1-4.271-1.039,7.757,7.757,0,0,1-2.955-2.852,8.43,8.43,0,0,1,0-8.263,7.668,7.668,0,0,1,2.955-2.823,8.76,8.76,0,0,1,4.271-1.024,8.968,8.968,0,0,1,4.316,1.024,7.592,7.592,0,0,1,2.955,2.809,7.946,7.946,0,0,1,1.068,4.155,7.856,7.856,0,0,1-1.068,4.124,7.618,7.618,0,0,1-2.955,2.852,8.8,8.8,0,0,1-4.316,1.039Zm0-3.129a4.844,4.844,0,0,0,2.4-.586,4.126,4.126,0,0,0,1.652-1.7,5.988,5.988,0,0,0,0-5.221,4.174,4.174,0,0,0-1.652-1.683,5.117,5.117,0,0,0-4.754,0,4.275,4.275,0,0,0-1.652,1.683,5.851,5.851,0,0,0,0,5.221,4.253,4.253,0,0,0,1.652,1.7A4.705,4.705,0,0,0,216.568,115.842Z" transform="translate(-102.645 -24.584)" fill="#fff"/>
    <path id="Path_83609" data-name="Path 83609" d="M300.149,105.34a1.424,1.424,0,0,0-1.649-.887,3.832,3.832,0,0,1-.957.112,2.066,2.066,0,0,1-1.594-.615,2.442,2.442,0,0,1-.57-1.725V94.793h2.734a1.448,1.448,0,0,0,1.448-1.448v-.027a1.448,1.448,0,0,0-1.448-1.448h-2.734V88.3a3.654,3.654,0,0,0-3.652,3.569H290.6a1.448,1.448,0,0,0-1.448,1.448v.027a1.448,1.448,0,0,0,1.448,1.448h1.124v7.519a5.165,5.165,0,0,0,1.4,3.934,5.558,5.558,0,0,0,3.978,1.33,7.065,7.065,0,0,0,1.931-.264c.072-.02.141-.04.208-.063a1.454,1.454,0,0,0,.905-1.913Z" transform="translate(-165.455 -13.193)" fill="#fff"/>
    <path id="Path_83610" data-name="Path 83610" d="M354.128,118.971a8.646,8.646,0,0,1-4.271-1.039,7.756,7.756,0,0,1-2.955-2.852,8.431,8.431,0,0,1,0-8.263,7.667,7.667,0,0,1,2.955-2.823,8.76,8.76,0,0,1,4.271-1.024,8.968,8.968,0,0,1,4.316,1.024A7.592,7.592,0,0,1,361.4,106.8a7.946,7.946,0,0,1,1.068,4.155,7.856,7.856,0,0,1-1.068,4.124,7.617,7.617,0,0,1-2.955,2.852,8.8,8.8,0,0,1-4.316,1.039Zm0-3.129a4.844,4.844,0,0,0,2.4-.586,4.131,4.131,0,0,0,1.654-1.7,5.988,5.988,0,0,0,0-5.221,4.164,4.164,0,0,0-1.654-1.683,5.117,5.117,0,0,0-4.754,0,4.3,4.3,0,0,0-1.654,1.683,5.851,5.851,0,0,0,0,5.221,4.243,4.243,0,0,0,1.654,1.7A4.705,4.705,0,0,0,354.128,115.842Z" transform="translate(-209.459 -24.584)" fill="#fff"/>
    <rect id="Rectangle_22864" data-name="Rectangle 22864" width="3.172" height="7.684" rx="1.586" transform="translate(172.835 71.386)" fill="#00ce7c"/>
    <rect id="Rectangle_22865" data-name="Rectangle 22865" width="3.172" height="7.684" rx="1.586" transform="translate(182.191 71.386)" fill="#00ce7c"/>
    <path id="Path_83611" data-name="Path 83611" d="M532.42,82.755a2.789,2.789,0,0,0-3.73,0V77.84h3.73Z" transform="translate(-351.456 -5.071)" fill="#fff"/>
    <g id="Group_45681" data-name="Group 45681" transform="translate(156.506 71.312)">
      <path id="Path_83612" data-name="Path 83612" d="M439.461,78.086h.022V74.854a3.534,3.534,0,0,0-3.534-3.534v6.75a2.5,2.5,0,0,1,3.513.016Z" transform="translate(-435.95 -71.32)" fill="#00ce7c"/>
      <path id="Path_83613" data-name="Path 83613" d="M451.306,137.3l.009-.811c-.011.163-.025.324-.025.5,0,.11.011.21.016.317Z" transform="translate(-447.861 -121.924)" fill="#7075b6"/>
      <path id="Path_83614" data-name="Path 83614" d="M444.318,102.962a6.65,6.65,0,0,0-3.35.863,5.634,5.634,0,0,0-1.484,1.236l-.018-.241a1.692,1.692,0,0,0-1.692-1.71h-.116a1.707,1.707,0,0,0-1.708,1.708v12.141a1.765,1.765,0,0,0,1.6,1.8,1.692,1.692,0,0,0,1.777-1.672l.063-5.82c0-.105-.016-.208-.016-.317,0-.172.013-.333.025-.5a5.152,5.152,0,0,1,.572-2.123,4.215,4.215,0,0,1,1.62-1.683,4.368,4.368,0,0,1,1.513-.525,1.967,1.967,0,0,0,1.795-2.007v-1.131c-.192-.013-.387-.022-.586-.022Z" transform="translate(-435.95 -95.888)" fill="#fff"/>
    </g>
    <path id="Path_83615" data-name="Path 83615" d="M462.742,107.411a7.243,7.243,0,0,0-2.716-2.778,7.093,7.093,0,0,0-2.168-.8c.038,1.535-.141,2.488-.8,3.125a4.1,4.1,0,0,1,.892.369,4.244,4.244,0,0,1,1.607,1.683,6.008,6.008,0,0,1,0,5.221,4.2,4.2,0,0,1-1.607,1.7,4.467,4.467,0,0,1-2.289.586,4.54,4.54,0,0,1-2.3-.586,4.167,4.167,0,0,1-1.62-1.7,5.254,5.254,0,0,1-.581-2.286l-.058,5.451a5.591,5.591,0,0,0,1.562,1.37,6.638,6.638,0,0,0,3.422.878,7.6,7.6,0,0,0,3.945-1.01,7.4,7.4,0,0,0,2.716-2.794,9.346,9.346,0,0,0,0-8.426Z" transform="translate(-291.208 -25.252)" fill="#00ce7c"/>
  </g>
</svg>
