<svg xmlns="http://www.w3.org/2000/svg" width="30.271" height="28.229" viewBox="0 0 30.271 28.229">
  <g id="Group_12" data-name="Group 12" transform="translate(-1312.661 -286.427)">
    <path id="Path_57" data-name="Path 57" d="M1314.209,300.748c.9-.91,1.959-1.994,2.868-2.9a1.839,1.839,0,0,1,2.967.016c1.371,1.377,2.733,2.763,4.218,4.266,1.2-1.239,2.321-2.424,3.469-3.587,1.234-1.252,2.488-2.485,3.736-3.722a1.837,1.837,0,0,1,2.965-.019q2.5,2.489,4.994,4.982c.4.394.651.832.182,1.287s-.912.207-1.288-.208c-.048-.053-.1-.1-.151-.151q-2.292-2.294-4.585-4.586c-.182-.182-.373-.355-.609-.578-.323.3-.623.563-.9.843a7.9,7.9,0,0,0-.743.738l-.775.769L1329,299.44l-3.1,3.078-1.888,1.878-.929.923a2.6,2.6,0,0,1-1.4.963.717.717,0,0,1-.793-.485c-.07-.338.192-.647.436-.892q.9-.912,1.825-1.808l-4.267-4.191a.405.405,0,0,0-.7.016l-3.306,3.307a1.794,1.794,0,0,0-.7,1.674l.02,2.362a1.753,1.753,0,0,0,.505,1.5,1.729,1.729,0,0,0,.989.2c2.881,0,5.762.014,8.642.014h3.88a1.675,1.675,0,0,1,.663.02c.463.2.818.643.462,1.112a1.026,1.026,0,0,1-.6.422,2.423,2.423,0,0,1-.63.02c-1.148-.059-2.3-.027-3.45-.027H1320.3l-4.454,0a2.845,2.845,0,0,1-3.183-3.154q0-8.409,0-16.82a2.839,2.839,0,0,1,3.141-3.123q12.009,0,24.018,0a2.83,2.83,0,0,1,3.1,3.089q0,4.378,0,8.755v2.1q0,.525,0,1.05a3.225,3.225,0,0,1-.068.986c-.092.283-.351.667-.692.632-.668-.068-.791-.856-.779-1.381.007-.365,0-.731,0-1.1V294q0-2.1,0-4.2c0-1.465-.35-1.819-1.789-1.819h-23.662c-1.349,0-1.734.382-1.734,1.735q0,5.024,0,10.049v.765Z" fill="#61aa96"/>
    <path id="Path_58" data-name="Path 58" d="M1355.454,319.922a5.9,5.9,0,1,1-5.851-5.931A5.887,5.887,0,0,1,1355.454,319.922Zm-5.888,4.33a4.357,4.357,0,0,0,.027-8.713,4.357,4.357,0,1,0-.027,8.713Z" transform="translate(-12.53 -11.144)" fill="#61aa96"/>
    <path id="Path_59" data-name="Path 59" d="M1328.372,291.623a2.81,2.81,0,1,1-2.784,2.82A2.782,2.782,0,0,1,1328.372,291.623Zm-.009,4.081a1.286,1.286,0,0,0,1.321-1.215,1.3,1.3,0,0,0-1.278-1.34,1.271,1.271,0,0,0-1.27,1.262A1.249,1.249,0,0,0,1328.363,295.7Z" transform="translate(-5.227 -2.1)" fill="#61aa96"/>
    <path id="Path_60" data-name="Path 60" d="M1352.412,321.84c0,.764-.008,1.37,0,1.977.01.544-.151.967-.771.965s-.765-.46-.77-.982c-.006-.592,0-1.184,0-1.959-.3.284-.493.465-.687.644a.727.727,0,0,1-1.13.024.712.712,0,0,1,.027-1.08q.993-1.02,2.015-2.013a.745.745,0,0,1,1.14.023c.665.645,1.316,1.3,1.963,1.965a.763.763,0,1,1-1.063,1.092C1352.937,322.315,1352.734,322.132,1352.412,321.84Z" transform="translate(-14.62 -13.235)" fill="#61aa96"/>
  </g>
</svg>
