<svg id="Group_45692" data-name="Group 45692" xmlns="http://www.w3.org/2000/svg" width="26" height="26" viewBox="0 0 26 26">
  <circle id="Ellipse_53" data-name="Ellipse 53" cx="13" cy="13" r="13" fill="#32cd75"/>
  <path id="Icon_awesome-camera" data-name="Icon awesome-camera" d="M13.558,5.009V12.1a1.229,1.229,0,0,1-1.271,1.182H1.271A1.229,1.229,0,0,1,0,12.1V5.009A1.229,1.229,0,0,1,1.271,3.827H3.6l.326-.81A1.27,1.27,0,0,1,5.116,2.25H8.44a1.27,1.27,0,0,1,1.189.766l.328.81h2.33A1.229,1.229,0,0,1,13.558,5.009Zm-3.6,3.547A3.075,3.075,0,0,0,6.779,5.6,3.075,3.075,0,0,0,3.6,8.556a3.075,3.075,0,0,0,3.178,2.956A3.075,3.075,0,0,0,9.957,8.556Zm-.847,0a2.257,2.257,0,0,1-2.33,2.168,2.257,2.257,0,0,1-2.33-2.168,2.257,2.257,0,0,1,2.33-2.168A2.257,2.257,0,0,1,9.11,8.556Z" transform="translate(6.191 5.232)" fill="#fff"/>
</svg>
