<svg xmlns="http://www.w3.org/2000/svg" width="19" height="19" viewBox="0 0 19 19">
  <g id="Group_43842" data-name="Group 43842" transform="translate(-368 -2873)">
    <g id="Ellipse_19" data-name="Ellipse 19" transform="translate(368 2873)" fill="#fff" stroke="#d4d4d4" stroke-width="1">
      <circle cx="9.5" cy="9.5" r="9.5" stroke="none"/>
      <circle cx="9.5" cy="9.5" r="9" fill="none"/>
    </g>
    <path id="Icon_awesome-user-alt" data-name="Icon awesome-user-alt" d="M4.695,5.282A2.641,2.641,0,1,0,2.054,2.641,2.642,2.642,0,0,0,4.695,5.282Zm2.347.587H6.032a3.193,3.193,0,0,1-2.674,0H2.347A2.347,2.347,0,0,0,0,8.216V8.51a.881.881,0,0,0,.88.88H8.51a.881.881,0,0,0,.88-.88V8.216A2.347,2.347,0,0,0,7.042,5.869Z" transform="translate(372.805 2877.353)" fill="#d4d4d4"/>
  </g>
</svg>
