<svg xmlns="http://www.w3.org/2000/svg" width="22.5" height="22.5" viewBox="0 0 22.5 22.5">
  <path id="Icon_feather-message-circle" data-name="Icon feather-message-circle" d="M25.5,14.417a9.777,9.777,0,0,1-1.05,4.433,9.917,9.917,0,0,1-8.867,5.483,9.777,9.777,0,0,1-4.433-1.05L4.5,25.5l2.217-6.65a9.777,9.777,0,0,1-1.05-4.433A9.917,9.917,0,0,1,11.15,5.55,9.777,9.777,0,0,1,15.583,4.5h.583A9.893,9.893,0,0,1,25.5,13.833Z" transform="translate(-3.75 -3.75)" fill="none" stroke="#32cd75" stroke-linecap="round" stroke-linejoin="round" stroke-width="1.5"/>
</svg>
